HIERARCHY
ROOT Hips
{
	OFFSET 0.000000 0.000000 0.000000
	CHANNELS 6 Xposition Yposition Zposition Xrotation Yrotation Zrotation
	JOINT LeftUpLeg_virtual
	{
		OFFSET 0.000000 0.000000 0.000000
		CHANNELS 3 Xrotation Yrotation Zrotation
		JOINT LeftUpLeg
		{
			OFFSET 11.394100 -6.187798 -0.413800
			CHANNELS 3 Xrotation Yrotation Zrotation
			JOINT LeftLeg
			{
				OFFSET 0.430247 -32.302673 3.732800
				CHANNELS 3 Xrotation Yrotation Zrotation
				JOINT LeftFoot
				{
					OFFSET -0.430247 -48.264931 -6.423300
					CHANNELS 3 Xrotation Yrotation Zrotation
					JOINT LeftToeBase
					{
						OFFSET 4.230900 -16.068199 23.438400
						CHANNELS 3 Xrotation Yrotation Zrotation
						JOINT LeftToe_End
						{
							OFFSET 4.510700 0.695400 19.974600
							CHANNELS 3 Xrotation Yrotation Zrotation
							End Site
							{
								OFFSET 0 0 0
							}
						}
					}
				}
			}
		}
	}
	JOINT RightUpLeg_virtual
	{
		OFFSET 0.000000 0.000000 0.000000
		CHANNELS 3 Xrotation Yrotation Zrotation
		JOINT RightUpLeg
		{
			OFFSET -11.333700 -6.187798 -0.413800
			CHANNELS 3 Xrotation Yrotation Zrotation
			JOINT RightLeg
			{
				OFFSET -0.430392 -32.302628 3.733000
				CHANNELS 3 Xrotation Yrotation Zrotation
				JOINT RightFoot
				{
					OFFSET 0.430392 -48.264973 -6.423500
					CHANNELS 3 Xrotation Yrotation Zrotation
					JOINT RightToeBase
					{
						OFFSET -4.230900 -16.068199 23.438400
						CHANNELS 3 Xrotation Yrotation Zrotation
						JOINT RightToe_End
						{
							OFFSET -4.510700 0.695400 19.974600
							CHANNELS 3 Xrotation Yrotation Zrotation
							End Site
							{
								OFFSET 0 0 0
							}
						}
					}
				}
			}
		}
	}
	JOINT Spine_virtual
	{
		OFFSET 0.000000 0.000000 0.000000
		CHANNELS 3 Xrotation Yrotation Zrotation
		JOINT Spine
		{
			OFFSET -0.002400 12.777504 0.315300
			CHANNELS 3 Xrotation Yrotation Zrotation
			JOINT Spine1
			{
				OFFSET -0.002067 5.816869 0.032633
				CHANNELS 3 Xrotation Yrotation Zrotation
				JOINT Spine1_split
				{
					OFFSET -0.002067 5.816869 0.032633
					CHANNELS 3 Xrotation Yrotation Zrotation
					JOINT Spine2
					{
						OFFSET -0.002067 5.816869 0.032633
						CHANNELS 3 Xrotation Yrotation Zrotation
						JOINT Neck_virtual
						{
							OFFSET 0.000000 0.000000 0.000000
							CHANNELS 3 Xrotation Yrotation Zrotation
							JOINT Neck
							{
								OFFSET -0.003700 21.199493 -0.826900
								CHANNELS 3 Xrotation Yrotation Zrotation
								JOINT Head
								{
									OFFSET 0.000000 20.442200 4.834800
									CHANNELS 3 Xrotation Yrotation Zrotation
									JOINT HeadTop_End
									{
										OFFSET 0.000000 34.668396 4.968400
										CHANNELS 3 Xrotation Yrotation Zrotation
										End Site
										{
											OFFSET 0 0 0
										}
									}
								}
							}
						}
						JOINT LeftShoulder_virtual
						{
							OFFSET 0.000000 0.000000 0.000000
							CHANNELS 3 Xrotation Yrotation Zrotation
							JOINT LeftShoulder
							{
								OFFSET 3.288150 8.794197 -1.372250
								CHANNELS 3 Xrotation Yrotation Zrotation
								JOINT LeftShoulder_split
								{
									OFFSET 3.288150 8.794197 -1.372250
									CHANNELS 3 Xrotation Yrotation Zrotation
									JOINT LeftArm
									{
										OFFSET 11.953299 -2.279007 -0.146200
										CHANNELS 3 Xrotation Yrotation Zrotation
										JOINT LeftForeArm
										{
											OFFSET 18.448900 0.000000 0.000000
											CHANNELS 3 Xrotation Yrotation Zrotation
											JOINT LeftHand
											{
												OFFSET 29.527798 0.000000 0.000000
												CHANNELS 3 Xrotation Yrotation Zrotation
												End Site
												{
													OFFSET 0 0 0
												}
											}
										}
									}
								}
							}
						}
						JOINT RightShoulder_virtual
						{
							OFFSET 0.000000 0.000000 0.000000
							CHANNELS 3 Xrotation Yrotation Zrotation
							JOINT RightShoulder
							{
								OFFSET -3.249400 8.794197 -1.372250
								CHANNELS 3 Xrotation Yrotation Zrotation
								JOINT RightShoulder_split
								{
									OFFSET -3.249400 8.794197 -1.372250
									CHANNELS 3 Xrotation Yrotation Zrotation
									JOINT RightArm
									{
										OFFSET -11.953299 -2.279007 -0.146200
										CHANNELS 3 Xrotation Yrotation Zrotation
										JOINT RightForeArm
										{
											OFFSET -18.448900 0.000000 0.000000
											CHANNELS 3 Xrotation Yrotation Zrotation
											JOINT RightHand
											{
												OFFSET -29.527802 0.000000 0.000000
												CHANNELS 3 Xrotation Yrotation Zrotation
												End Site
												{
													OFFSET 0 0 0
												}
											}
										}
									}
								}
							}
						}
					}
				}
			}
		}
	}
}
MOTION
Frames: 5
Frame Time: 0.03333333
106.039085 85.116821 205.883392 0.000000 0.000000 0.000000 -102.431944 -72.634233 177.826407 -75.573475 2.422457 36.508519 93.395850 -3.785077 -9.856383 28.973345 -9.357162 -8.645232 -0.340939 -0.000026 0.000020 0.000000 0.000000 0.000000 -102.431944 -72.634233 177.826407 -62.091214 22.504348 -52.472228 67.171823 2.757255 -1.682926 5.817210 2.283677 16.642956 8.673475 -0.000031 -0.000002 0.000000 0.000000 0.000000 -102.431944 -72.634233 177.826407 11.384465 1.715866 4.008472 2.771603 9.957181 10.412058 0.000000 0.000000 0.000000 0.000000 0.000000 0.000000 -0.882307 2.661900 7.798888 19.891623 6.141139 11.410915 15.465601 35.529281 -18.333568 0.000000 0.000000 0.000000 -0.882307 2.661900 7.798888 -0.098466 -5.977424 0.627779 0.000000 0.000000 0.000000 9.798800 -4.593799 -1.481038 -0.000021 -29.759592 -0.000014 0.000000 0.000000 0.000000 -0.882307 2.661900 7.798888 0.821612 0.232460 16.066161 0.000000 0.000000 0.000000 -41.494263 7.833436 12.026881 0.000003 18.396529 0.000001 0.000000 0.000000 0.000000 
111.829742 78.655121 214.918640 0.000000 0.000000 0.000000 -100.714718 -66.128403 177.016688 -74.771010 4.187017 38.901500 94.325336 -3.579335 -9.890934 26.585224 -11.400393 -9.440296 0.669939 -0.000003 -0.000009 0.000000 0.000000 0.000000 -100.714718 -66.128403 177.016688 -64.577697 21.789922 -47.842070 60.626460 1.891421 -2.857366 10.192333 3.067408 19.179407 8.592772 -0.000023 0.000009 0.000000 0.000000 0.000000 -100.714718 -66.128403 177.016688 11.548876 1.686981 2.196403 4.854285 11.245307 9.491956 0.000000 0.000000 0.000000 0.000000 0.000000 0.000000 -0.264528 4.650234 6.859576 17.054967 5.940613 9.977813 17.218058 33.848126 -18.256850 0.000000 0.000000 0.000000 -0.264528 4.650234 6.859576 0.094780 -6.199209 -0.123044 0.000000 0.000000 0.000000 9.665281 -8.508375 -0.913033 0.000009 -16.045863 0.000012 0.000000 0.000000 0.000000 -0.264528 4.650234 6.859576 0.702717 0.170126 17.086861 0.000000 0.000000 0.000000 -42.474330 9.627239 15.642598 -0.000010 21.324546 0.000003 0.000000 0.000000 0.000000 
117.936089 70.722839 223.370819 0.000000 0.000000 0.000000 -98.969257 -65.887597 175.690757 -75.887814 3.780921 34.950003 95.808081 -3.288437 -8.885017 25.970541 -9.847083 -8.191267 0.402804 0.000005 -0.000024 0.000000 0.000000 0.000000 -98.969257 -65.887597 175.690757 -64.175317 18.745651 -48.711338 53.619717 1.084789 -3.957080 15.939590 4.807877 22.699183 7.955828 -0.000010 0.000004 0.000000 0.000000 0.000000 -98.969257 -65.887597 175.690757 11.750885 1.275516 1.696917 5.957492 11.339462 9.012861 0.000000 0.000000 0.000000 0.000000 0.000000 0.000000 0.073768 4.191051 6.295738 13.799712 5.635504 8.568020 19.962056 31.780699 -18.252620 0.000000 0.000000 0.000000 0.073768 4.191051 6.295738 0.268087 -6.237663 -0.973501 0.000000 0.000000 0.000000 7.893504 -4.110868 1.992696 -0.000009 -21.678785 -0.000002 0.000000 0.000000 0.000000 0.073768 4.191051 6.295738 0.787622 0.240699 18.556507 0.000000 0.000000 0.000000 -42.487916 7.719427 18.634641 -0.000009 29.131276 -0.000001 0.000000 0.000000 0.000000 
124.964798 60.116634 233.385498 0.000000 0.000000 0.000000 -100.235881 -63.249416 170.756532 -77.695533 2.709822 29.019493 95.974717 -0.215893 -7.071597 27.735971 -8.431759 -7.985886 0.467818 0.000028 -0.000043 0.000000 0.000000 0.000000 -100.235881 -63.249416 170.756532 -68.245584 16.351567 -45.995515 46.004568 0.829700 -6.188968 23.363010 8.449291 24.250267 2.668275 -0.000014 -0.000001 0.000000 0.000000 0.000000 -100.235881 -63.249416 170.756532 12.015857 0.948785 2.548511 6.471729 11.084011 8.784408 0.000000 0.000000 0.000000 0.000000 0.000000 0.000000 0.445380 2.770597 5.891448 11.640464 5.195614 7.192117 19.687687 29.472792 -17.527329 0.000000 0.000000 0.000000 0.445380 2.770597 5.891448 0.150620 -6.043554 -3.147662 0.000000 0.000000 0.000000 4.885614 7.041744 4.864244 -0.000003 -28.737054 -0.000005 0.000000 0.000000 0.000000 0.445380 2.770597 5.891448 0.910771 0.309269 19.874510 0.000000 0.000000 0.000000 -41.661149 4.331589 22.138658 -0.000011 40.042865 -0.000002 0.000000 0.000000 0.000000 
134.742615 44.599575 247.670685 0.000000 0.000000 0.000000 -103.980648 -48.814860 165.254200 -79.980334 4.256325 22.571893 87.378911 5.784170 -4.614774 33.740103 -3.712482 -13.798092 1.252082 -0.000002 0.000011 0.000000 0.000000 0.000000 -103.980648 -48.814860 165.254200 -82.777439 16.944791 -30.376672 38.452076 -0.968569 -6.593168 31.409451 7.844870 20.612334 0.258261 -0.000007 0.000001 0.000000 0.000000 0.000000 -103.980648 -48.814860 165.254200 12.355094 1.392317 3.618119 6.776492 10.711431 8.774132 0.000000 0.000000 0.000000 0.000000 0.000000 0.000000 1.101999 1.953570 6.037223 11.020244 4.591023 5.860866 17.139323 26.777883 -16.307116 0.000000 0.000000 0.000000 1.101999 1.953570 6.037223 -0.402342 -5.311628 -7.757077 0.000000 0.000000 0.000000 -1.431219 31.188481 3.323684 -0.000002 -60.418323 0.000019 0.000000 0.000000 0.000000 1.101999 1.953570 6.037223 0.867107 0.505552 22.720182 0.000000 0.000000 0.000000 -41.589312 -1.043957 23.666652 0.000004 53.515140 -0.000001 0.000000 0.000000 0.000000 
